<svg xmlns="http://www.w3.org/2000/svg" viewBox="0 0 1024 1024"><defs><style type="text/css">.cls-1{fill:#fff;}.cls-2{fill:#ed1c24;}</style></defs><title>Hand_WhiteRed</title><g id="Layer_8" data-name="Layer 8"><rect class="cls-1" width="1024" height="1024" rx="197" ry="197"/><path class="cls-2" d="M580.63,474.14c95.74,0,177,61.87,206.06,147.81,4.49-28.75,13.92-58,24.48-84.47,16.47-41.31,47.17-76,73.88-111,27.27-35.71,51.78-87.79,57.7-104.65s3.86-35.45-11.82-44-34.53,5.7-40.13,10.46c-13.63,11.58-113.8,159-129.3,172.46-8,6.94-19.45,14.61-27,8.75-5.77-4.48-3.12-17.79-2.5-28.5,1.87-32.46,38.88-196.64,43.41-265,.74-11.17-.09-45.7-26.42-48.75s-36.49,20.35-40.49,36c-12,46.6-46.93,183.08-66,222.79-7.76,16.16-17,31.61-31.5,30-9-1-17.67-15.33-21-37-6.53-42.42-34.14-231.59-39-259-3.23-18.24-9.27-60.6-44.51-55.93s-31.8,47.42-30.76,64.7c2.11,35,23.48,214.06,29.27,254.73,3.13,22,6.53,53.19-13,61-15,6-27.86-11.91-34.43-26.54-14.67-32.67-75.05-207.71-88.26-242.88-6.26-16.67-21.88-38.77-47.85-31.68s-25,39.36-22.9,52.42c7.77,47.51,27.74,98,43.11,143.85,17,50.67,29.33,104.66,45.66,155,5.9,18.15,7.67,30.33,13.6,74.49A216.35,216.35,0,0,1,580.63,474.14Z"/><path class="cls-2" d="M758,817.38A217.18,217.18,0,0,1,580.63,909c-120.09,0-216.44-97.35-216.44-217.45,0-5.19,1.62-25.14,2.14-29.35-4.89.64-21.83,33.77-42.33,36.27-18.11,2.21-41.29-6.19-71.67-20.83C235,669.31,198.22,656.43,180,650c-24.08-8.5-70.62-5.25-78.6-4.46C80,647.67,62.25,656,52.63,679s29.24,42.43,48.62,51.28C137.93,747,185.5,762.65,219,776.33c71,29,157.87,99.6,192.43,123.29,32.19,22.07,79.48,54.31,169.69,54.31,115.88,0,199-100.25,176.9-136.55Z"/><circle class="cls-2" cx="580.63" cy="691.58" r="147.58"/><circle class="cls-1" cx="617.77" cy="662.23" r="54.23"/></g></svg>
